<?xml version="1.0" standalone="no"?>
<!DOCTYPE svg PUBLIC "-//W3C//DTD SVG 20010904//EN"
 "http://www.w3.org/TR/2001/REC-SVG-20010904/DTD/svg10.dtd">
<svg version="1.0" xmlns="http://www.w3.org/2000/svg"
 width="512.000000pt" height="512.000000pt" viewBox="0 0 512.000000 512.000000"
 preserveAspectRatio="xMidYMid meet">

<g transform="translate(0.000000,512.000000) scale(0.100000,-0.100000)"
fill="#000000" stroke="none">
<path d="M650 5102 c-19 -9 -45 -32 -57 -51 l-23 -34 0 -2455 0 -2455 21 -34
c34 -54 107 -82 166 -62 19 6 429 313 911 682 482 369 884 671 892 671 8 0
404 -299 880 -664 476 -365 881 -672 900 -682 66 -34 144 -13 187 51 l23 34 0
2457 0 2457 -23 34 c-12 19 -38 42 -57 51 -33 17 -145 18 -1910 18 -1765 0
-1877 -1 -1910 -18z m3600 -2463 c0 -1744 -3 -2179 -12 -2171 -93 74 -1581
1210 -1603 1224 -42 25 -111 23 -156 -5 -31 -19 -1376 -1045 -1546 -1179 l-63
-50 0 2181 0 2181 1690 0 1690 0 0 -2181z"/>
<path d="M2088 4380 c-209 -35 -387 -170 -482 -364 -119 -242 -95 -516 63
-714 39 -48 765 -801 801 -829 29 -24 88 -34 129 -23 34 9 98 70 437 420 464
478 479 497 525 666 71 258 -26 553 -234 710 -118 89 -272 144 -407 144 -83 0
-202 -28 -283 -68 l-79 -37 -73 36 c-124 60 -265 81 -397 59z m241 -316 c24
-9 71 -39 104 -66 34 -27 72 -51 85 -55 42 -10 102 4 138 34 109 88 201 121
303 109 205 -24 359 -232 321 -434 -21 -117 -41 -142 -387 -498 -178 -184
-327 -336 -332 -338 -4 -3 -151 143 -326 325 -282 289 -325 338 -360 405 -38
73 -40 81 -40 168 0 81 4 98 31 156 68 144 202 226 354 216 36 -3 85 -12 109
-22z"/>
</g>
</svg>
